<svg xmlns="http://www.w3.org/2000/svg" width="80" height="80" viewBox="0 0 80 80">
    <g fill="none" fill-rule="evenodd">
        <circle cx="40" cy="40" r="40" fill="#E8E9EB"/>
        <path fill="#FFF" d="M53.287 54.533c0 .928-.751 1.683-1.673 1.683H20.159c-.924 0-1.675-.755-1.675-1.683V33.636c0-.928.75-1.683 1.675-1.683h2.728v15.276c0 2.304 1.866 4.18 4.158 4.18h26.242v3.124z"/>
        <path fill="#D2D3D6" d="M53.287 54.438c0 .929-.751 1.683-1.673 1.683H20.159c-.924 0-1.675-.754-1.675-1.683V33.541c0-.928.75-1.683 1.675-1.683h2.728v15.276c0 2.305 1.866 4.18 4.158 4.18h26.242v3.124zm8.815-26.529c-.686 0-1.242.56-1.242 1.25v17.975c0 .928-.751 1.683-1.673 1.683H27.045c-.923 0-1.674-.755-1.674-1.683V24.866c0-.928.751-1.683 1.674-1.683H56.79c.687 0 1.243-.559 1.243-1.248 0-.69-.556-1.25-1.243-1.25H27.045c-2.292 0-4.158 1.876-4.158 4.18v4.497h-2.728c-2.294 0-4.16 1.875-4.16 4.18v20.896c0 2.305 1.866 4.18 4.16 4.18h31.455c2.292 0 4.157-1.875 4.157-4.18v-3.124h3.416c2.292 0 4.157-1.875 4.157-4.18V29.158c0-.69-.556-1.249-1.242-1.249z"/>
        <path fill="#D2D3D6" d="M55.71 32.725v6.398c-2.448.484-4.4 2.436-4.884 4.885H35.285c-.484-2.449-2.437-4.401-4.885-4.885v-6.398c2.448-.485 4.4-2.437 4.885-4.886h15.54c.485 2.45 2.437 4.401 4.886 4.886m1.2-2.284c-2.096 0-3.802-1.705-3.802-3.802 0-.661-.538-1.2-1.2-1.2H34.201c-.661 0-1.2.539-1.2 1.2 0 2.097-1.705 3.802-3.801 3.802-.662 0-1.2.538-1.2 1.2v8.565c0 .662.538 1.2 1.2 1.2 2.096 0 3.801 1.706 3.801 3.802 0 .662.539 1.2 1.2 1.2H51.91c.662 0 1.2-.538 1.2-1.2 0-2.096 1.706-3.802 3.802-3.802.662 0 1.2-.538 1.2-1.2v-8.565c0-.662-.538-1.2-1.2-1.2"/>
        <path fill="#FFF" d="M55.71 39.123c-2.448.484-4.4 2.436-4.884 4.885H35.285c-.484-2.449-2.437-4.401-4.885-4.885v-6.398c2.448-.485 4.4-2.437 4.885-4.886h15.54c.485 2.45 2.437 4.401 4.886 4.886v6.398z"/>
        <path fill="#D2D3D6" d="M42.24 41.05v-.78c-.598-.018-1.198-.141-1.678-.324-.335-.127-.521-.483-.423-.828.11-.384.521-.588.895-.446.442.17.957.289 1.498.289.879 0 1.478-.431 1.478-1.1 0-.627-.488-1.031-1.519-1.407-1.463-.53-2.409-1.198-2.409-2.495 0-1.198.835-2.117 2.242-2.368v-.794c0-.316.256-.571.571-.571.316 0 .572.255.572.571v.725c.54.017.974.102 1.331.217.34.109.523.474.422.816-.106.363-.491.56-.85.438-.325-.11-.74-.204-1.253-.204-.975 0-1.322.502-1.322.976 0 .57.502.892 1.687 1.365 1.56.585 2.257 1.337 2.257 2.577 0 1.185-.824 2.23-2.356 2.48v.863c0 .316-.255.572-.571.572-.316 0-.572-.256-.572-.572"/>
    </g>
</svg>
