<svg width="70" height="70" viewBox="0 0 70 70" fill="none" xmlns="http://www.w3.org/2000/svg">
<circle cx="35" cy="35" r="35" fill="#E8E9EB"/>
<path fill-rule="evenodd" clip-rule="evenodd" d="M43.8375 45.8501C43.8375 46.5501 44.3625 47.0751 45.0625 47.0751C45.7625 47.0751 46.2875 46.5501 46.2875 45.8501C46.2875 45.1501 45.7625 44.6251 45.0625 44.6251C44.3625 44.6251 43.8375 45.1501 43.8375 45.8501ZM45.4125 38.0626V43.8376C46.375 44.0126 47.1625 44.8876 47.1625 45.8501C47.1625 46.9876 46.2 47.9501 45.0625 47.9501C43.925 47.9501 42.9625 46.9876 42.9625 45.8501C42.9625 44.8876 43.6625 44.0126 44.625 43.8376V38.0626C44.625 37.2751 43.925 36.5751 43.1375 36.5751H40.5125L41.2125 37.2751C41.3874 37.4501 41.3874 37.7126 41.2125 37.8876C41.0374 38.0626 40.775 38.0626 40.6 37.8876L39.2 36.4876C39.1125 36.4001 39.1125 36.3126 39.1125 36.1376C39.1125 36.0501 39.1125 35.8751 39.2 35.7876L40.6 34.3876C40.775 34.2126 41.0374 34.2126 41.2125 34.3876C41.3874 34.5626 41.3874 34.8251 41.2125 35.0001L40.5125 35.7001H43.1375C44.3625 35.7876 45.4125 36.8376 45.4125 38.0626ZM35.6125 35.1751C34.9125 35.1751 34.3875 35.7001 34.3875 36.4001C34.3875 37.1001 34.9125 37.6251 35.6125 37.6251C36.3125 37.6251 36.8375 37.1001 36.8375 36.4001C36.8375 35.7001 36.3125 35.1751 35.6125 35.1751ZM41.475 45.8501C41.5625 45.9376 41.5625 46.0251 41.5625 46.2001C41.5625 46.2876 41.5625 46.4626 41.475 46.5501L40.075 47.9501C39.9875 48.0376 39.9 48.0376 39.8125 48.0376C39.725 48.0376 39.6375 48.0376 39.55 47.9501C39.375 47.7751 39.375 47.5126 39.55 47.3376L40.25 46.6376H37.625C36.3125 46.6376 35.2625 45.5876 35.2625 44.2751V38.5001C34.3 38.3251 33.5125 37.4501 33.5125 36.4876C33.5125 35.3501 34.475 34.3876 35.6125 34.3876C36.75 34.3876 37.7125 35.3501 37.7125 36.4876C37.7125 37.4501 37.0125 38.3251 36.05 38.5001V44.2751C36.05 45.0626 36.75 45.7626 37.5375 45.7626H40.1625L39.4625 45.0626C39.2875 44.8876 39.2875 44.6251 39.4625 44.4501C39.6375 44.2751 39.9 44.2751 40.075 44.4501L41.475 45.8501Z" fill="#D2D3D6"/>
<path fill-rule="evenodd" clip-rule="evenodd" d="M34.3875 36.4C34.3875 35.7 34.9125 35.175 35.6125 35.175C36.3125 35.175 36.8375 35.7 36.8375 36.4C36.8375 37.1 36.3125 37.625 35.6125 37.625C34.9125 37.625 34.3875 37.1 34.3875 36.4Z" fill="white"/>
<path fill-rule="evenodd" clip-rule="evenodd" d="M43.8374 45.85C43.8374 45.15 44.3624 44.625 45.0624 44.625C45.7624 44.625 46.2874 45.15 46.2874 45.85C46.2874 46.55 45.7624 47.075 45.0624 47.075C44.3624 47.075 43.8374 46.55 43.8374 45.85Z" fill="white"/>
<path d="M56.7876 28.7L51.4501 20.5625C51.3626 20.3875 51.1001 20.3 50.9251 20.3H29.9251H19.1626C18.9876 20.3 18.7251 20.3875 18.6376 20.5625L16.6251 23.5375C16.4501 23.8 16.5376 24.2375 16.8001 24.4125C17.0626 24.5875 17.5001 24.5 17.6751 24.2375L19.4251 21.525H28.7001L24.1501 28.35H14.9626L16.2751 26.3375C16.4501 26.075 16.3626 25.6375 16.1001 25.4625C15.8376 25.2875 15.4001 25.375 15.2251 25.6375L13.2126 28.7C13.1251 28.875 13.1251 29.1375 13.2126 29.4C13.3001 29.575 13.5626 29.75 13.7376 29.75H18.4626V53.9C18.4626 54.775 19.1626 55.5625 20.1251 55.5625H31.3251H32.6376H49.8751C50.7501 55.5625 51.5376 54.8625 51.5376 53.9V29.75H56.2626C56.5251 29.75 56.7001 29.6625 56.7876 29.4C56.8751 29.1375 56.8751 28.875 56.7876 28.7ZM29.3126 54.1625H20.1251C19.9501 54.1625 19.7751 53.9875 19.7751 53.8125V29.75H24.5876C24.7626 29.75 25.0251 29.6625 25.1126 29.4875L29.3126 23.1V54.1625ZM50.2251 53.8125C50.2251 53.9875 50.0501 54.1625 49.8751 54.1625H43.7501H37.0126H32.6376H31.3251H30.6251V23.1L34.8251 29.4875C34.9126 29.6625 35.1751 29.75 35.3501 29.75H45.4126H47.1626H50.2251V53.8125ZM47.1626 28.4375H45.4126H35.7001L31.1501 21.6125H50.4876L55.0376 28.4375H47.1626Z" fill="#D2D3D6"/>
<path d="M47.1624 28.4375H45.4124H35.6999L31.1499 21.6125H50.4874L55.0374 28.4375H47.1624Z" fill="white"/>
<path d="M35 9.625C35.4376 9.625 35.7001 9.975 35.7001 10.325V13.7375C35.7001 14.175 35.3501 14.4375 35 14.4375C34.5625 14.4375 34.3 14.0875 34.3 13.7375V10.325C34.3 9.975 34.5625 9.625 35 9.625Z" fill="#D2D3D6"/>
<path d="M28.0876 11.4625C28.4376 11.2875 28.8751 11.375 29.0501 11.725L30.7126 14.7C30.8876 15.05 30.8001 15.4875 30.4501 15.6625C30.1001 15.8375 29.6626 15.75 29.4876 15.4L27.8251 12.425C27.5626 12.1625 27.7376 11.725 28.0876 11.4625Z" fill="#D2D3D6"/>
<path d="M39.2875 14.7L40.95 11.725C41.125 11.375 41.5625 11.2875 41.9125 11.4625C42.2625 11.6375 42.35 12.075 42.175 12.425L40.5125 15.4C40.3375 15.75 39.9 15.8375 39.55 15.6625C39.2 15.4875 39.025 15.05 39.2875 14.7Z" fill="#D2D3D6"/>
<path d="M29.3124 54.1626H20.1249C19.9499 54.1626 19.7749 53.9876 19.7749 53.8126V29.7501H24.5874C24.7624 29.7501 25.0249 29.6626 25.1124 29.4876L29.3124 23.1001V54.1626Z" fill="white"/>
</svg>
