<svg xmlns="http://www.w3.org/2000/svg" width="80" height="80" viewBox="0 0 80 80">
    <g fill="none" fill-rule="evenodd">
        <circle cx="40" cy="40" r="40" fill="#E8E9EB"/>
        <path fill="#FFF" d="M45.547 45.173c5.973 0 10.773 4.854 10.773 10.774v5.226H23.68V56c0-5.973 4.853-10.827 10.773-10.827h11.094zM40 18.827c5.302 0 9.6 4.298 9.6 9.6s-4.298 9.6-9.6 9.6-9.6-4.298-9.6-9.6 4.298-9.6 9.6-9.6z"/>
        <path fill="#D2D3D6" d="M40 40.693c-6.773 0-12.267-5.493-12.267-12.266 0-6.774 5.494-12.267 12.267-12.267s12.267 5.493 12.267 12.267c0 6.773-5.494 12.266-12.267 12.266zm0-21.92c-5.28 0-9.6 4.32-9.6 9.6 0 5.28 4.32 9.6 9.6 9.6 5.28 0 9.6-4.32 9.6-9.6 0-5.28-4.32-9.6-9.6-9.6zm14.453 45.12c-.746 0-1.333-.586-1.333-1.333s.587-1.333 1.333-1.333c.907 0 1.654-.747 1.654-1.654 0-7.893-6.454-14.346-14.347-14.346h-3.413C30.453 45.227 24 51.68 24 59.573c0 .907.747 1.654 1.653 1.654H47.84c.747 0 1.333.586 1.333 1.333s-.586 1.333-1.333 1.333H25.547c-2.4 0-4.32-1.92-4.32-4.32 0-9.386 7.626-17.013 17.013-17.013h3.413c9.387 0 17.014 7.627 17.014 17.013.053 2.347-1.867 4.32-4.214 4.32z"/>
    </g>
</svg>
