<svg xmlns="http://www.w3.org/2000/svg" xmlns:xlink="http://www.w3.org/1999/xlink" width="80" height="80" viewBox="0 0 80 80">
    <defs>
        <circle id="fvefn8rn6a" cx="40" cy="40" r="40"/>
    </defs>
    <g fill="none" fill-rule="evenodd">
        <use fill="#E8E9EB" xlink:href="#fvefn8rn6a"/>
        <path fill="#D2D3D6" d="M16.001 32.364c-.356-.004-.697-.098-.995-.27-.464-.268-.797-.702-.937-1.22-.139-.52-.068-1.064.203-1.53l5.015-8.373.001-.003c.167-.276.401-.51.678-.677.95-.574 2.187-.272 2.764.676l5.011 8.367c.18.31.273.65.277.995.012 1.11-.88 2.023-1.99 2.035H16z"/>
        <path fill="#FFF" d="M20.71 21.827l-5.009 8.359c-.056.1-.042.204-.028.257.015.053.055.15.164.213.055.031.113.047.174.048H26.02c.184-.002.34-.162.338-.356 0-.061-.017-.121-.046-.173l-5.002-8.351c-.099-.16-.316-.213-.483-.114-.048.029-.088.07-.116.117"/>
        <path fill="#D2D3D6" d="M21.016 28.338c.458 0 .83.372.83.83 0 .459-.372.83-.83.83-.46 0-.833-.371-.833-.83 0-.458.368-.83.827-.83h.006zm-.006-4.73c.46 0 .83.37.83.83v2.366c0 .459-.37.83-.83.83-.459 0-.83-.371-.83-.83v-2.366c0-.46.371-.83.83-.83z"/>
        <path fill="#FFF" d="M62.853 35.536c.682 0 1.238.562 1.238 1.251V55.55c0 2.267-1.842 4.11-4.104 4.11H31.882c-4.035 0-4.104 0-4.104-4.11V36.787c0-.689.556-1.251 1.239-1.251h33.79"/>
        <path fill="#D2D3D6" d="M31.778 24.896h1.57c.114 0 .222.044.303.123l3.064 3.034c.614.61 1.454.95 2.372.961l15.879-.16c.138 0 .232.038.318.123.083.082.126.188.126.304v3.598H40.503c-.8 0-1.45.65-1.45 1.45 0 .81.654 1.446 1.488 1.446h22.554c.048 0 .1.063.1.146v5.42h-8.263c-.8 0-1.447.648-1.447 1.446 0 .812.652 1.448 1.486 1.448h8.225v11.382c0 1.736-1.36 3.147-3.03 3.147H28.98c.552-.919.876-1.993.876-3.147v-6.059h.012V45.18c0-.038-.01-.073-.012-.109v-.073h-.007c-.091-.71-.693-1.264-1.43-1.264s-1.324.541-1.426 1.264l-.033 10.62c0 1.736-1.361 3.147-3.032 3.147h-1.397c-1.89 0-3.428-1.538-3.428-3.429V39H19.1v-.552c0-.038-.01-.073-.01-.11v-.073h-.008c-.091-.712-.693-1.265-1.43-1.265s-1.324.542-1.426 1.265l-.003.735h-.015v16.335c0 3.49 2.838 6.325 6.324 6.325h37.634c3.266 0 5.925-2.71 5.925-6.043V35.921c0-1.677-1.344-3.042-2.996-3.042h-4.788v-3.598c0-.894-.35-1.733-.986-2.36-.626-.622-1.467-.963-2.371-.963l-15.887.16c-.12 0-.232-.044-.311-.123l-3.065-3.035c-.628-.619-1.458-.96-2.34-.96h-.92.78-1.158c-.038 0-.073.008-.11.011h-.072v.008c-.711.09-1.264.692-1.264 1.43 0 .736.54 1.323 1.264 1.426"/>
    </g>
</svg>
